# xmcd CD database file
#
# Track frame offsets:
#	187
#	20819
#	38029
#	53489
#	79544
#	99492
#	116979
#	136177
#	153662
#
# Disc length: 2287 seconds
#
# Revision: 5
# Processed by: cddbd v1.5.2PL0 Copyright (c) Steve Scherf et al.
# Submitted via: CDex 1.70beta2
#
DISCID=6d08ed09
DTITLE=Seawind - Seawind
DYEAR=1980
DGENRE=Jazz
TTITLE0=What Cha Doin'
TTITLE1=The Two Of Us
TTITLE2=Love Him, Love Her
TTITLE3=Everything Needs Love
TTITLE4=Shout
TTITLE5=Still In Love
TTITLE6=Pra Vose
TTITLE7=I Need Your Love
TTITLE8=Long, Long Time
EXTD=1980 A&M Records - Polydor POCM-5035 YEAR: 1980
EXTT0=
EXTT1=
EXTT2=
EXTT3=
EXTT4=
EXTT5=
EXTT6=
EXTT7=
EXTT8=
PLAYORDER=
